# xmcd
# 
# Track frame offsets:
#     182
#     26155
#     44232
#     64777
#     80595
#     117410
#     144120
#     159912
#     178520
#     204802
#     258762
#     277217
# 
# Disc length: 3985
# 
# Revision: 86
# Processed by: cddbd v1.5.2PL0 Copyright (c) Steve Scherf et al.
# Submitted via: BonkEnc v1.0.15
# 
DISCID=a70f8f0c
DTITLE=Dire Straits - Money For Nothing
DYEAR=1988
DGENRE=Rock
TTITLE0=Sultans of swing
TTITLE1=Down to thewaterline
TTITLE2=Portobellobelle (Live)
TTITLE3=Twisting by the pool (Remix)
TTITLE4=Tunnel of love
TTITLE5=Romeo and Juliet
TTITLE6=Where do you think you are going
TTITLE7=Walk of life
TTITLE8=Private investigations
TTITLE9=Telegraph road (Live remix)
TTITLE10=Money for nothing
TTITLE11=Brothers in arms
EXTD=YEAR: 1988
EXTT0=
EXTT1=
EXTT2=
EXTT3=
EXTT4=
EXTT5=
EXTT6=
EXTT7=
EXTT8=
EXTT9=
EXTT10=
EXTT11=
PLAYORDER=
